<?xml version="1.0" encoding="utf-8"?>
<!-- Generator: Adobe Illustrator 25.1.0, SVG Export Plug-In . SVG Version: 6.00 Build 0)  -->
<svg version="1.1" id="e820890d-d6c5-44c3-98f0-d6ce4ed2164f"
	 xmlns="http://www.w3.org/2000/svg" xmlns:xlink="http://www.w3.org/1999/xlink" x="0px" y="0px" viewBox="0 0 968 529"
	 style="enable-background:new 0 0 968 529;" xml:space="preserve">
<style type="text/css">
	.st0{fill:#F1F1F1;}
	.st1{fill:#FFFFFF;}
	.st2{fill:#CBCBCB;}
	.st3{fill:#663300;}
	.st4{fill:#2F2E41;}
	.st5{fill:#333333;}
	.st6{fill:#323190;}
	.st7{fill:#31348E;}
	.st8{fill:#30368D;}
	.st9{fill:#3F3D56;}
	.st10{fill:#B2B0A1;}
	.st11{font-family:'CurlzMT';}
	.st12{font-size:72px;}
	.st13{fill:#231F20;}
</style>
<path class="st0" d="M38.4,506.8c26.4,19,60.7,20,93.8,17.7c4.6-0.3,9.2-0.7,13.8-1.1h0.1c0.2,0,0.4,0,0.6-0.1
	c0.9-0.1,1.9-0.2,2.8-0.3l-0.2,0.4l-0.7,1.3c0.2-0.4,0.5-0.9,0.7-1.3c0.1-0.1,0.2-0.3,0.2-0.4c8.6-14.9,17.1-30.4,19.2-47.4
	c2.2-17.7-4.1-37.7-19.6-46.4c-2-1.1-4.2-2-6.4-2.7c-0.9-0.3-1.9-0.5-2.8-0.7c-18.2-4-36.1,7.4-40.2,25.6c-1.3,6-1,12.3,1,18.2
	C87.6,456,90,434,94.6,415.7s10.1-38.8,0.8-55.2c-5.2-9.2-14.2-14.9-24.4-17.2c-0.3-0.1-0.6-0.1-0.9-0.2
	c-12.1-2.5-24.7-0.2-35.3,6.2C15.3,361.6,5.3,384.8,2,407.6C-3.2,444.2,8.4,485.1,38.4,506.8z"/>
<path class="st1" d="M47,448c0.8,8.1,2.7,16,5.8,23.5c2.8,6.7,6.6,12.9,11.3,18.4c9.5,11.4,22.1,20,35.7,25.7
	c10.4,4.3,21.4,7.2,32.5,8.7c4.6-0.3,9.2-0.7,13.8-1.1h0.1c0.2,0,0.4,0,0.6-0.1c0.9-0.1,1.9-0.2,2.8-0.3l-0.2,0.4l-0.7,1.3
	c0.2-0.4,0.5-0.9,0.7-1.3c0.1-0.1,0.2-0.3,0.2-0.4c-17-16.9-24.7-41-20.7-64.7c2.1-11.6,6.8-22.5,13.9-31.9
	c-0.9-0.3-1.9-0.5-2.8-0.7c-2.7,3.7-5,7.6-7.1,11.7c-7.2,14.6-9.5,31.1-6.5,47.1c2.7,14.5,9.5,27.9,19.6,38.6
	c-0.9-0.1-1.8-0.1-2.6-0.2c-16.5-1.4-33-5-48-12.2c-12.8-6.1-23.9-15.2-32.4-26.6c-9.1-12.5-13.1-27.6-13.8-42.9
	c-0.7-16.4,1.4-33.1,5.1-49c3.8-16.3,9.6-32.1,17.3-47.1c0.4-0.7,0.1-1.6-0.6-2c-0.3-0.2-0.6-0.3-0.9-0.2c-0.3,0.1-0.6,0.3-0.7,0.6
	c-0.9,1.8-1.9,3.7-2.8,5.6c-7.4,15.5-12.9,31.9-16.3,48.8C47,414.4,45.2,431.4,47,448z"/>
<path class="st2" d="M382,529H1c-0.6,0-1-0.4-1-1s0.4-1,1-1h381c0.6,0,1,0.4,1,1S382.6,529,382,529z"/>
<path class="st3" d="M267.6,260.5l-17.2-84.4l-7.6-62.3L226,124.6l2.3,68.7l26.8,71.2c-2.4,4.6-0.6,10.2,3.9,12.6
	c4.6,2.4,10.2,0.6,12.6-3.9c2.4-4.6,0.6-10.2-3.9-12.6C267.7,260.5,267.7,260.5,267.6,260.5L267.6,260.5z"/>
<path class="st3" d="M106.5,267l4.8-86l-1.6-62.8l22.2,8.3l3.7,68.3l-16.1,74.3c3,4.2,2.1,10-2,13c-4.2,3-10,2.1-13-2
	c-3-4.2-2.1-10,2-13C106.4,267,106.5,267,106.5,267L106.5,267z"/>
<polygon class="st3" points="152.9,517.1 164.2,517.1 169.6,473.4 152.9,473.4 "/>
<path class="st4" d="M150,513.4h22.3l0,0c7.8,0,14.2,6.4,14.2,14.2v0.5H150V513.4z"/>
<polygon class="st3" points="195.8,512.1 207,513.8 219,471.5 202.5,468.9 "/>
<path class="st4" d="M193.5,508l22,3.4l0,0c7.8,1.2,13.1,8.5,11.9,16.2l-0.1,0.5l-36.1-5.6L193.5,508z"/>
<path class="st5" d="M149.6,504.1l-0.1-0.3l-41-221.7c-3.3-17.8-0.7-36.2,7.4-52.4l24.8-49.6l74,10l8.7,63.2l31.1,120.5v0.1
	l-39.9,126.7l-26.1,1.7l23.2-113.1l-42.4-96.3l3,209.4L149.6,504.1z"/>
<path class="st6" d="M216.5,198.2l-0.5-0.8c-0.1-0.1-9.1-13.7-33.6-4.6c-25,9.2-44.3-8.6-44.5-8.8l-0.1-0.1l-5.7-50.4l-6.7-40.9
	l21.3-3.7l10.5-6.3l41.6-0.7l10.9,8.6l18,2l1.6,37.3l0,0L216.5,198.2z"/>
<path class="st7" d="M222.5,133.3v-31.9l5.1-9.2h0.2c4,0.1,7.7,1.9,10.5,4.8c5.1,5.2,7.4,13.8,6.8,25.6v0.2L222.5,133.3z"/>
<path class="st8" d="M134.5,129.8l-25.7-3.1v-0.3c-0.9-12.8,1.4-22.4,6.7-28.3c4.8-5.4,10.3-5.7,10.5-5.7h0.1l7,6.3L134.5,129.8z"/>
<path class="st4" d="M209,68.9h-67.7c-2.9,0-5.3-2.4-5.3-5.3V39.1C136,17.5,153.5,0,175.1,0s39.1,17.5,39.1,39.1v24.5
	C214.2,66.6,211.9,68.9,209,68.9z"/>
<circle class="st3" cx="176.7" cy="40" r="28.7"/>
<path class="st4" d="M203.9,40.9H166c-1.5,0-2.7-1.1-2.9-2.6l-0.5-3.9c-0.1-1-1-1.6-2-1.5c-0.6,0.1-1.1,0.5-1.4,1l-2.5,5.3
	c-0.5,1-1.5,1.7-2.6,1.7h-5.8c-1.6,0-2.9-1.3-2.9-2.9c0-0.1,0-0.2,0-0.3l2.3-23.7c0.1-1,0.7-1.9,1.7-2.4c17.3-8.1,34.9-8.1,52.3,0
	c0.9,0.4,1.5,1.3,1.7,2.2l3.4,23.7c0.2,1.6-0.9,3.1-2.5,3.3C204.2,40.9,204.1,40.9,203.9,40.9L203.9,40.9z"/>
<polyline class="st9" points="274.6,259 267.7,265.9 266.3,264.4 278.4,252.4 "/>
<polyline class="st9" points="436,203 446.9,203 507,141.6 624.5,141.6 683.9,81.9 960,81.9 960,83.9 684.7,83.9 625.4,143.6 
	507.8,143.6 447.7,205 328.6,205 274.6,259 "/>
<polyline class="st9" points="278.4,252.4 327.8,203 436,203 "/>
<ellipse class="st1" cx="509" cy="143" rx="37" ry="37"/>
<circle class="st2" cx="685" cy="83" r="10"/>
<circle class="st2" cx="958" cy="83" r="10"/>
<circle class="st2" cx="822" cy="83" r="10"/>
<path class="st9" d="M509,181c-21,0-38-17-38-38s17-38,38-38s38,17,38,38C546.9,164,529.9,181,509,181z M509,107
	c-19.9,0-36,16.1-36,36s16.1,36,36,36c19.9,0,36-16.1,36-36S528.8,107,509,107z"/>
<path class="st7" d="M523.3,165.2c-4.1,2.7-9,4.2-14.3,4.2c-14.6,0-26.4-11.8-26.4-26.4s11.8-26.4,26.4-26.4s26.4,11.8,26.4,26.4
	C535.4,152.3,530.6,160.5,523.3,165.2"/>
<polygon class="st1" points="506.5,154.2 498.5,144 503.1,140.4 506.9,145.2 519.5,131.9 523.8,135.9 "/>
<circle class="st1" cx="327" cy="204" r="37"/>
<path class="st9" d="M327,242c-21,0-38-17-38-38s17-38,38-38s38,17,38,38C364.9,225,347.9,242,327,242z M327,168
	c-19.9,0-36,16.1-36,36s16.1,36,36,36s36-16.1,36-36S346.8,168,327,168z"/>
<circle class="st8" cx="327" cy="204" r="26.4"/>
<polygon class="st1" points="324.5,215.2 316.5,205 321.1,201.4 324.9,206.2 337.5,192.9 341.8,196.9 "/>
<text transform="matrix(1 0 0 1 373.15 297.3457)" class="st10 st11 st12">DART TUTORIAL</text>
<g>
	<g>
		<path class="st13" d="M858.3,201.6l-208.8,49l-104.3,24.4l-26,6.1l-13,3.1c-2.2,0.5-4.3,1-6.5,1.5c-2.1,0.6-4.2,1.3-6.2,2.3
			c-4,1.9-7.9,4.3-11.7,7.1c-3.8,2.8-7.5,6-11.3,9.4c-7.5,6.9-15,14.8-22.7,23.8l-5.9-25.1l-39.3,34l-5.8-24.7
			c-1.2,0-2.3,0.3-3.4,0.7c-1.1,0.4-2.1,1-3.2,1.7c-2.1,1.3-4,3.1-5.9,5.1c-1.9,2.1-3.7,4.3-5.5,7l-0.7,1l-0.2,0.2
			c-0.1,0.1-0.1,0.2-0.1,0.4c0,0.1,0,0.5,0,0.8c0,0.2,0,0.8,0.1,1.2l0.1,1.4l0.1,0.7l0.1,1.1l0.6,4.5l0.6,4.5l1.1,6.8l2.3,13.5
			c0.8,4.7,1.4,8.4,2.6,15l6.6,35.8l-23.4-97.6l-6.4-69l0-0.5l0.5,0l247.9-22.6L858.3,201.6z M857.3,201.8L610,224.8l-247.1,22.9
			l0.5-0.5l6.4,69l-23.4-97.6l10,35c1.8,6.5,3,10.1,4.3,14.6l4,13.1l2,6.6l1.5,4.3l1.5,4.3l0.4,1.1l0.3,0.7l0.5,1.3
			c0.2,0.4,0.4,0.9,0.5,1.1c0.1,0.2,0.3,0.6,0.4,0.7c0.1,0.2,0.2,0.2,0.3,0.3l0.3,0.1l1,0.6c2.8,1.6,5.4,2.8,8,3.8
			c2.6,1,5.1,1.6,7.6,1.9c1.2,0.1,2.4,0.2,3.6,0.1c1.2-0.1,2.3-0.3,3.4-0.9l-5.8-24.7l50.3,13l-5.9-25.1c9.7,4.9,19.5,8.7,29.4,11.6
			c4.9,1.4,9.9,2.5,14.8,3.3c4.9,0.8,9.7,1.2,14.4,1c2.3-0.1,4.6-0.3,6.8-0.8c2.2-0.5,4.3-1,6.5-1.5l13-3.1l26-6.1l104.1-24.5
			L857.3,201.8z"/>
	</g>
</g>
</svg>
